<svg width="398" height="572" viewBox="0 0 398 572" fill="none" xmlns="http://www.w3.org/2000/svg">
<path d="M24.5 473.828C24.5 478.532 20.6936 482.344 16 482.344C11.3064 482.344 7.5 478.532 7.5 473.828C7.5 469.124 11.3064 465.312 16 465.312C20.6936 465.312 24.5 469.124 24.5 473.828Z" stroke="#114885"/>
<path d="M133 469.822C133 473.972 129.641 477.336 125.5 477.336C121.359 477.336 118 473.972 118 469.822C118 465.671 121.359 462.308 125.5 462.308C129.641 462.308 133 465.671 133 469.822Z" stroke="#2E90D0"/>
<path d="M134 469.821C134 474.525 130.194 478.337 125.5 478.337C120.806 478.337 117 474.525 117 469.821C117 465.117 120.806 461.306 125.5 461.306C130.194 461.306 134 465.117 134 469.821Z" stroke="#114885"/>
<path d="M3.52829 52.2772C3.38672 51.7427 3.38672 51.3306 3.38672 50.7639C4.22538 49.6312 5.37182 49.8423 6.44853 49.8418C23.5772 49.8346 40.706 49.8297 57.8347 49.8391C74.2549 49.8482 90.6751 49.7987 107.28 49.8845C108.304 49.8585 110.812 49.7344 110.812 49.7344C110.812 49.7344 108.948 50.5588 109 51.5C109.735 51.6644 108.139 52.5032 109 52.9369C109.324 53.2614 109.906 55.0625 110 55.5C109.778 56.4982 110.727 58.48 111.5 59C111.72 59.4012 112.723 63.8246 114 62C114.049 62.9322 113.59 60.3256 112.74 60.5242C111.957 60.7074 111.606 60.1141 111.231 59.5808C111.047 59.3184 110.791 59.1142 110.392 58.8225C109.998 58.4565 109.875 58.1346 109.811 57.5944C109.429 56.2647 108.49 55.4219 108.27 54.1436C108.141 53.401 107.168 52.9543 106.252 52.9369C105.608 52.9246 104.965 52.9276 104.322 52.9275C75.6309 52.9269 46.94 52.9098 18.2492 52.9455C13.8763 52.951 9.51237 52.6234 5.13995 52.7304C4.62643 52.7429 4.1036 52.7589 3.52829 52.2772Z" fill="#60CCEF"/>
<path d="M3.38672 52.3003C37.4146 52.1541 71.4425 52.1516 105.47 52.1537C107.794 52.1538 108.701 52.8538 109.299 55.2227C109.505 56.0365 110.737 56.2391 110.419 57.4473C110.047 57.9157 109.65 57.9587 109.113 57.6207C108.845 56.2024 107.598 55.3559 107.594 53.9193C107.593 53.4178 106.597 53.603 106.034 53.6034C87.8919 53.616 69.7494 53.6717 51.6071 53.6336C35.6531 53.6002 19.6992 53.4623 3.56602 53.3425C3.38672 53.0247 3.38672 52.7349 3.38672 52.3003Z" fill="#4FACE4"/>
<path d="M107.854 50.4404C84.9094 50.6024 62.0792 50.6016 39.2489 50.6033C27.4156 50.6042 15.5823 50.6095 3.56785 50.611C3.38672 50.1971 3.38672 49.785 3.38672 49.2184C4.03463 48.3346 4.90595 48.4882 5.72864 48.4876C13.3087 48.4821 20.8889 48.4843 28.6594 48.4846C34.1575 48.4863 39.4653 48.486 44.9637 48.4848C65.0509 48.484 84.9473 48.4829 104.844 48.4901C105.675 48.4904 106.519 48.3728 107.507 48.728C108.096 49.2466 108.162 49.7365 107.854 50.4404Z" fill="#3870B8"/>
<circle cx="121.5" cy="50.5" r="11" stroke="#3870B8"/>
<circle cx="121.5" cy="50.5" r="11" stroke="#3870B8"/>
<circle cx="121.5" cy="50.5" r="11" stroke="#265EA7"/>
<circle cx="121.5" cy="50.5" r="12.5" stroke="#3870B8" stroke-width="2"/>
<circle cx="121.5" cy="50.5" r="12.5" stroke="#60CCEF" stroke-width="2"/>
<circle cx="121.5" cy="50.5" r="14" stroke="#3870B8"/>
<circle cx="121.5" cy="50.5" r="14" stroke="#3870B8"/>
<circle cx="24.5" cy="80.5" r="11" fill="#64EDFC"/>
<circle cx="24.5" cy="80.5" r="11" stroke="#3870B8"/>
<circle cx="24.5" cy="80.5" r="11" stroke="#3870B8"/>
<circle cx="24.5" cy="80.5" r="11" stroke="#60CCEF"/>
<circle cx="24.5" cy="80.5" r="12.5" stroke="#3870B8" stroke-width="2"/>
<circle cx="24.5" cy="80.5" r="12.5" stroke="#156CD7" stroke-width="2"/>
<path d="M15.8936 88.0606L1.99951 102" stroke="#60CCEF" stroke-width="3"/>
<path d="M15.1865 87.3535L2 100.5" stroke="#156CD7"/>
<path d="M17 89L3 103.5" stroke="#156CD7"/>
<circle cx="73.5001" cy="190.5" r="8.44444" fill="#64EDFC"/>
<circle cx="73.5001" cy="190.5" r="8.44444" stroke="#3870B8"/>
<circle cx="73.5001" cy="190.5" r="8.44444" stroke="#3870B8"/>
<circle cx="73.5001" cy="190.5" r="8.44444" stroke="#60CCEF"/>
<circle cx="73.5" cy="190.5" r="9.5" stroke="#3870B8" stroke-width="2"/>
<circle cx="73.5" cy="190.5" r="9.5" stroke="#156CD7" stroke-width="2"/>
<path d="M2 189H66V190V191H2V189Z" fill="#64EDFC"/>
<path d="M2 188H66L65.5 189H66H2V188Z" fill="#60CCEF"/>
<path d="M2 187H65L64.5078 188H65H2V187Z" fill="#156CD7"/>
<path d="M2 192H65L64.5078 193H65H2V192Z" fill="#156CD7"/>
<path d="M2 192H65.5V191H66H2V192Z" fill="#60CCEF"/>
<circle cx="84.5006" cy="316.504" r="10" transform="rotate(-0.0244785 84.5006 316.504)" fill="#64EDFC" stroke="#2E90D0"/>
<circle cx="84.5" cy="316.505" r="11" transform="rotate(-0.0244785 84.5 316.505)" stroke="#114885"/>
<path d="M2.99902 315.039L75.999 315.008L75.9997 316.508L76.0003 318.008L3.00031 318.039L2.99902 315.039Z" fill="#64EDFC"/>
<path d="M2.99902 314.039L74.999 314.008L74.4369 315.009L74.9994 315.008L2.99945 315.039L2.99902 314.039Z" fill="#2E90D0"/>
<path d="M2.99805 313.039L73.998 313.009L73.4438 314.009L73.9985 314.009L2.99847 314.039L2.99805 313.039Z" fill="#114885"/>
<path d="M3.00098 319.039L74.001 319.009L73.4467 320.009L74.0014 320.009L3.0014 320.039L3.00098 319.039Z" fill="#114885"/>
<path d="M3.00098 319.039L74.4385 319.009L74.438 318.009L75.0005 318.008L3.00055 318.039L3.00098 319.039Z" fill="#2E90D0"/>
<path d="M18 271H32V285H18V271Z" fill="#64EDFC"/>
<path d="M18 271H32V285H18V271Z" fill="#64EDFC"/>
<path d="M18 271H32V285H18V271Z" stroke="#4FACE4" stroke-width="4"/>
<path d="M17 270H33V286H17V270Z" fill="#3870B8"/>
<path d="M17 270H33V286H17V270Z" fill="#3870B8"/>
<path d="M17 270H33V286H17V270Z" stroke="#073974" stroke-width="2"/>
<rect x="19" y="272" width="12" height="12" fill="#64EDFC"/>
<rect x="19" y="272" width="12" height="12" fill="#64EDFC"/>
<circle cx="72" cy="352" r="7.5" fill="#4FACE4" stroke="#2E90D0"/>
<circle cx="72" cy="352" r="8.5" stroke="#114885"/>
<path d="M66.5 352C61.6852 352 47.4603 352 35.0794 352C22.6984 352 19.6032 362.667 19.6032 368C19.4312 372.952 19.1905 384.114 19.6032 389.143C20.119 395.429 19.6032 402.857 17.5397 408C15.8889 412.114 8.9418 419.238 5.6746 422.286L3 425" stroke="#4FACE4" stroke-width="3"/>
<path d="M64 350C59.1111 350 46.1905 350 33.619 350C21.0476 350 17.9048 360.667 17.9048 366C17.7302 370.952 17.4857 382.114 17.9048 387.143C18.4286 393.429 17.9048 400.857 15.8095 406C14.1333 410.114 7.07937 417.238 3.76191 420.286L2 422" stroke="#114885" stroke-width="2"/>
<path d="M64 354C59.3333 354 48 354 36 354C24 354 21 364.526 21 369.789C20.8333 374.677 20.6 385.692 21 390.654C21.5 396.857 21 404.188 19 409.263C17.4 413.323 10.6667 420.353 7.5 423.361L3 427.5" stroke="#114885" stroke-width="2"/>
<path d="M64 412H78V426H64V412Z" fill="#64EDFC"/>
<path d="M64 412H78V426H64V412Z" fill="#64EDFC"/>
<path d="M64 412H78V426H64V412Z" stroke="#4FACE4" stroke-width="4"/>
<path d="M63 411H79V427H63V411Z" fill="#4E89CB"/>
<path d="M63 411H79V427H63V411Z" fill="#4E89CB"/>
<path d="M63 411H79V427H63V411Z" stroke="#002760" stroke-width="2"/>
<path d="M103 412H117V426H103V412Z" fill="#64EDFC"/>
<path d="M103 412H117V426H103V412Z" fill="#64EDFC"/>
<path d="M103 412H117V426H103V412Z" stroke="#4FACE4" stroke-width="4"/>
<path d="M102 411H118V427H102V411Z" fill="#4E89CB"/>
<path d="M102 411H118V427H102V411Z" fill="#4E89CB"/>
<path d="M102 411H118V427H102V411Z" stroke="#002760" stroke-width="2"/>
<path d="M113 550H127V564H113V550Z" fill="#64EDFC"/>
<path d="M113 550H127V564H113V550Z" fill="#64EDFC"/>
<path d="M113 550H127V564H113V550Z" stroke="#4FACE4" stroke-width="4"/>
<path d="M112 549H128V565H112V549Z" fill="#265EA7"/>
<path d="M112 549H128V565H112V549Z" fill="#265EA7"/>
<path d="M112 549H128V565H112V549Z" stroke="#002760" stroke-width="2"/>
<path d="M69 550H83V564H69V550Z" fill="#64EDFC"/>
<path d="M69 550H83V564H69V550Z" fill="#64EDFC"/>
<path d="M69 550H83V564H69V550Z" stroke="#4FACE4" stroke-width="4"/>
<path d="M68 549H84V565H68V549Z" fill="#265EA7"/>
<path d="M68 549H84V565H68V549Z" fill="#265EA7"/>
<path d="M68 549H84V565H68V549Z" stroke="#002760" stroke-width="2"/>
<path d="M155 550H169V564H155V550Z" fill="#64EDFC"/>
<path d="M155 550H169V564H155V550Z" fill="#64EDFC"/>
<path d="M155 550H169V564H155V550Z" stroke="#4FACE4" stroke-width="4"/>
<path d="M154 549H170V565H154V549Z" fill="#265EA7"/>
<path d="M154 549H170V565H154V549Z" fill="#265EA7"/>
<path d="M154 549H170V565H154V549Z" stroke="#002760" stroke-width="2"/>
<path d="M23.5 473.828C23.5 477.979 20.1413 481.342 16 481.342C11.8587 481.342 8.5 477.979 8.5 473.828C8.5 469.678 11.8587 466.314 16 466.314C20.1413 466.314 23.5 469.678 23.5 473.828Z" fill="#4FACE4" stroke="#2E90D0"/>
<path d="M239 404.707C239 408.858 235.641 412.221 231.5 412.221C227.359 412.221 224 408.858 224 404.707C224 400.557 227.359 397.193 231.5 397.193C235.641 397.193 239 400.557 239 404.707Z" fill="#4FACE4" stroke="#2E90D0"/>
<path d="M240 404.707C240 409.411 236.194 413.223 231.5 413.223C226.806 413.223 223 409.411 223 404.707C223 400.003 226.806 396.191 231.5 396.191C236.194 396.191 240 400.003 240 404.707Z" stroke="#114885"/>
<path d="M20 468.5L30.5 458L38 451C40 449 45.6 445 52 445C58.4 445 101.667 444.667 122.5 444.5C125 444.333 131.1 442.9 135.5 438.5C139.9 434.1 157.333 416.667 165.5 408.5C167 407 170.8 404 174 404C177.2 404 209.667 404 225.5 404" stroke="#4FACE4" stroke-width="2"/>
<path d="M239 404.707C239 408.858 235.641 412.221 231.5 412.221C227.359 412.221 224 408.858 224 404.707C224 400.557 227.359 397.193 231.5 397.193C235.641 397.193 239 400.557 239 404.707Z" fill="#4FACE4" stroke="#2E90D0"/>
<path d="M240 404.707C240 409.411 236.194 413.223 231.5 413.223C226.806 413.223 223 409.411 223 404.707C223 400.003 226.806 396.191 231.5 396.191C236.194 396.191 240 400.003 240 404.707Z" stroke="#114885"/>
<path d="M20 468.5L30.5 458L38 451C40 449 45.6 445 52 445C58.4 445 101.667 444.667 122.5 444.5C125 444.333 131.1 442.9 135.5 438.5C139.9 434.1 157.333 416.667 165.5 408.5C167 407 170.8 404 174 404C177.2 404 209.667 404 225.5 404" stroke="#4FACE4" stroke-width="2"/>
<path d="M20 467L29.5 457L37 450C39 448 44.6 444 51 444C57.4 444 100.667 443.667 121.5 443.5C124 443.333 130.1 441.9 134.5 437.5C138.9 433.1 156.333 415.667 164.5 407.5C166 406 169.8 403 173 403C176.2 403 208.667 403 224.5 403" stroke="#2E90D0"/>
<path d="M20 465.5L29 456.5L36.5 449.5C38.5 447.5 45.5 443 50 443C54.5 443 99.6667 442.667 120.5 442.5C123 442.333 128.6 441.9 133 437.5C137.4 433.1 155.833 415.167 164 407C165.5 405.5 169.8 402 173 402C176.2 402 207.667 402 223.5 402" stroke="#114885"/>
<path d="M23 468.5L31.5 460.5L40 452.5C42 450.5 47 447 52.5 447C58 447 102.167 446.667 123 446.5C125.5 446.333 131 445.5 135.5 441.5C140.151 437.366 158.333 419.167 166.5 411C168 409 171 406 175.5 406C178.7 406 207.667 406 223.5 406" stroke="#114885"/>
<path d="M22 468.5L31.5 459L39 452C41 450 46.6 446 53 446C59.4 446 102.667 445.667 123.5 445.5C126 445.333 132.1 443.9 136.5 439.5C140.9 435.1 158.333 417.667 166.5 409.5C168 408 171.8 405 175 405C178.2 405 208.667 405 224.5 405" stroke="#2E90D0"/>
<path d="M65 413H77V425H65V413Z" fill="#64EDFC"/>
<path d="M65 413H77V425H65V413Z" fill="#4FACE4"/>
<path d="M104 413H116V425H104V413Z" fill="#64EDFC"/>
<path d="M104 413H116V425H104V413Z" fill="#4FACE4"/>
<path d="M132.5 469.822C132.5 473.697 129.364 476.836 125.5 476.836C121.636 476.836 118.5 473.697 118.5 469.822C118.5 465.946 121.636 462.808 125.5 462.808C129.364 462.808 132.5 465.946 132.5 469.822Z" stroke="#265EA7" stroke-width="2"/>
<path d="M134 469.821C134 474.525 130.194 478.337 125.5 478.337C120.806 478.337 117 474.525 117 469.821C117 465.117 120.806 461.306 125.5 461.306C130.194 461.306 134 465.117 134 469.821Z" stroke="#002760"/>
<path d="M24.4414 509.5C26.7448 509.333 32.3652 507.9 36.4193 503.5C40.4734 499.1 56.536 481.667 64.0606 473.5C65.4426 472 68.9439 469 71.8923 469C74.8407 469 102.912 469 117.5 469" stroke="#4FACE4" stroke-width="2"/>
<path d="M117.5 469C102.912 469 74.8407 469 71.8923 469C68.9439 469 65.4426 472 64.0606 473.5C56.536 481.667 40.4734 499.1 36.4193 503.5C32.3652 507.9 26.3034 509.333 24 509.5H2.5" stroke="#4E89CB" stroke-width="2"/>
<path d="M117.501 468C102.912 468 73.9195 468 70.9711 468C68.0227 468 64.5214 471 63.1394 472.5C55.6148 480.667 39.5522 498.1 35.4981 502.5C31.444 506.9 25.8236 508.333 23.5202 508.5C17.8936 508.549 10.491 508.612 2.68848 508.677" stroke="#265EA7"/>
<path d="M117.5 467C102.912 467 73.919 467 70.9706 467C68.0221 467 64.0602 470.5 62.6782 472C55.1536 480.167 38.1696 498.1 34.1155 502.5C30.0615 506.9 24.9018 507.333 22.5983 507.5C17.2375 507.547 10.1279 507.606 2.57422 507.668" stroke="#002760"/>
<path d="M117.501 471C102.912 471 76.2229 471 73.2745 471C69.1283 471 66.3642 474 64.9821 476C57.4575 484.167 40.7046 502.366 36.4194 506.5C32.2732 510.5 27.2057 511.333 24.9022 511.5C18.9391 511.552 10.9011 511.62 2.50098 511.689" stroke="#002760"/>
<path d="M117.5 470C102.912 470 75.7617 470 72.8133 470C69.8649 470 66.3637 473 64.9816 474.5C57.457 482.667 41.3944 500.1 37.3403 504.5C33.2863 508.9 27.6659 510.333 25.3624 510.5C19.2496 510.553 11.0406 510.623 2.5 510.694" stroke="#265EA7"/>
<circle cx="231" cy="516" r="7.5" stroke="#2E90D0"/>
<circle cx="231" cy="516" r="8.5" stroke="#114885"/>
<circle cx="231" cy="516" r="7" stroke="#265EA7" stroke-width="2"/>
<circle cx="231" cy="516" r="8.5" stroke="#002760"/>
<path d="M3 523C11.5 522.833 30.4 522.5 38 522.5C47.5 522.5 52 527.5 56 531.5C60 535.5 61.5 538 68.5 538C74.1 538 158.833 537.667 200.5 537.5C202.667 537.667 207.5 537.5 209.5 535.5C211.5 533.5 220.667 525 225 521" stroke="#265EA7" stroke-width="2"/>
<path d="M3 521C11.5 520.833 30.4 520.5 38 520.5C47.5 520.5 52 525.5 56 529.5C60 533.5 61.5 536 68.5 536C74.1 536 158.833 535.667 200.5 535.5C202.667 535.667 207.5 535.5 209.5 533.5C211.5 531.5 219.667 524 224 520" stroke="#002760" stroke-width="2"/>
<path d="M3 525C11.5 524.833 30.4 524.5 38 524.5C47.5 524.5 51.5 530 55.5 534C59.5 538 63 539.5 70 539.5C75.6 539.5 158.833 539.667 200.5 539.5C202.667 539.667 207.075 538.955 209.5 537.5C214.5 534.5 221.667 526.5 226 522.5" stroke="#002760" stroke-width="2"/>
<path d="M114 551H126V563H114V551Z" fill="#64EDFC"/>
<path d="M114 551H126V563H114V551Z" fill="#3870B8"/>
<path d="M70 551H82V563H70V551Z" fill="#64EDFC"/>
<path d="M70 551H82V563H70V551Z" fill="#3870B8"/>
<path d="M156 551H168V563H156V551Z" fill="#64EDFC"/>
<path d="M156 551H168V563H156V551Z" fill="#3870B8"/>
<rect y="13" width="3" height="554" fill="#0B0D1C"/>
</svg>
