<svg width="58" height="51" viewBox="0 0 58 51" fill="none" xmlns="http://www.w3.org/2000/svg">
<path fill-rule="evenodd" clip-rule="evenodd" d="M42.1001 34.1638L44.2281 30.5691H54.3795L57.5141 25.1627L51.2449 14.3787H42.4164L39.3681 9.02983H35.946V5.4064H41.5249L44.5732 10.784H49.1457L42.8478 0H30.5684V14.3787H35.5434L37.6427 17.9734H30.5684V25.1627H37.0675L40.0871 19.7851H48.1679L50.2384 23.3798H42.1864L39.1668 28.7574H30.5684V41.3532H40.3459L38.2753 44.9478H30.5684V50.3255H42.8478L52.2802 34.1638H46.2699L44.1706 37.7585H35.946V34.1638H42.1001Z" fill="#193C90"/>
<path fill-rule="evenodd" clip-rule="evenodd" d="M15.414 34.1638L13.2859 30.5691H3.13456L0 25.1627L6.26912 14.3787H15.0976L18.1459 9.02983H21.5681V5.40639H15.9891L12.9408 10.784H8.36841L14.6663 0H26.9745V14.3787H21.9707L19.8714 17.9734H26.9745V25.1627H20.4465L17.427 19.7851H9.34616L7.27563 23.3798H15.3277L18.3472 28.7574H26.9745V41.3532H17.1682L19.2387 44.9478H26.9745V50.3255H14.6663L5.23385 34.1638H11.2442L13.3434 37.7585H21.5681V34.1638H15.414Z" fill="#3B83B7"/>
</svg>
