<svg width="118" height="81" viewBox="0 0 118 81" fill="none" xmlns="http://www.w3.org/2000/svg">
<path d="M110.702 46.638V64.1563H80.8135V54.8751H91.703V43.6217C91.703 43.6217 91.4713 43.0415 90.5445 43.0415C89.6177 43.0415 89.2702 43.6217 89.2702 43.6217V53.1349H78.6124V64.7364H38.1821C38.1821 64.7364 37.0236 60.5598 40.0356 56.1512C41.7632 53.6226 46.1755 51.2786 46.1755 51.2786C46.1755 51.2786 46.5942 50.4004 46.2913 50.0024C45.9347 49.5341 44.7854 50.0025 44.7854 50.0025C44.7854 50.0025 43.2244 50.7325 42.3525 51.3946C41.4349 52.0915 40.2673 53.4829 40.2673 53.4829C40.2673 53.4829 38.6449 51.6105 38.0662 50.3505C37.3416 48.7729 37.487 45.942 37.487 45.942C37.487 45.942 37.142 45.4099 36.7919 45.3618C36.369 45.3039 35.8651 45.942 35.8651 45.942C35.8651 45.942 35.4933 49.3436 36.3285 51.2786C37.0109 52.8595 38.8772 54.8751 38.8772 54.8751C38.8772 54.8751 37.1184 57.4201 36.5602 59.2836C35.8651 61.6039 35.7493 64.7364 35.7493 64.7364H3.08076C-0.510499 62.6481 -0.27884 58.4715 0.416304 55.5712C5.42085 46.0116 14.7812 46.9474 18.8358 48.6103C18.8358 48.6103 20.8923 49.3691 21.2686 48.4942C21.5887 47.7499 20.226 46.87 20.226 46.87C20.3031 46.7928 10.8424 43.5056 5.28183 48.2622C5.28183 48.2622 4.71471 48.912 4.35506 48.7263C4.1206 48.6052 4.00753 48.1462 4.00753 48.1462C0.416297 32.9482 14.897 33.6443 14.6654 31.7881C12.0009 18.9104 22.7746 16.3581 28.9144 18.4464C32.1581 23.7831 35.1701 26.1034 35.1701 26.1034C35.1701 26.1034 31.2314 27.9596 29.4937 32.2522C29.7254 33.5283 31.1155 33.5283 31.6947 33.5283C31.9264 30.0479 36.0969 26.9154 37.6029 27.2635C37.6029 27.2635 43.8586 28.5397 44.0903 28.3076C44.322 28.0756 44.6695 27.6116 44.322 26.9155C39.1089 25.8713 34.8226 26.2194 30.5363 17.1702C37.1395 2.78434 55.0956 7.65698 55.6749 13.2257V50.6986C55.6749 50.6986 55.9531 52.17 57.3077 52.1202C58.6624 52.0703 58.8027 50.6986 58.8027 50.6986V10.3254H78.0332V23.8991H81.2769V31.5561H69.113V39.7931C69.113 39.7931 69.3447 40.4892 70.2714 40.4892C71.1982 40.4892 71.43 39.7931 71.43 39.7931V33.8764H83.3621V23.8991H90.197V30.3959H102.824V46.638H110.702Z" fill="url(#paint0_linear_192_852)"/>
<path d="M103.983 26.1034V17.1702H114.177V26.1034H103.983Z" fill="url(#paint1_linear_192_852)"/>
<path d="M102.245 0V12.1816H89.2702V0H102.245Z" fill="url(#paint2_linear_192_852)"/>
<path d="M110.702 8.93315V3.1324H118V8.93315H110.702Z" fill="url(#paint3_linear_192_852)"/>
<defs>
<linearGradient id="paint0_linear_192_852" x1="0" y1="0" x2="118.011" y2="64.5914" gradientUnits="userSpaceOnUse">
<stop offset="0.140625" stop-color="#5AC1DA"/>
<stop offset="0.692708" stop-color="#193C90"/>
</linearGradient>
<linearGradient id="paint1_linear_192_852" x1="0" y1="0" x2="118.011" y2="64.5914" gradientUnits="userSpaceOnUse">
<stop offset="0.140625" stop-color="#5AC1DA"/>
<stop offset="0.692708" stop-color="#193C90"/>
</linearGradient>
<linearGradient id="paint2_linear_192_852" x1="0" y1="0" x2="118.011" y2="64.5914" gradientUnits="userSpaceOnUse">
<stop offset="0.140625" stop-color="#5AC1DA"/>
<stop offset="0.692708" stop-color="#193C90"/>
</linearGradient>
<linearGradient id="paint3_linear_192_852" x1="0" y1="0" x2="118.011" y2="64.5914" gradientUnits="userSpaceOnUse">
<stop offset="0.140625" stop-color="#5AC1DA"/>
<stop offset="0.692708" stop-color="#193C90"/>
</linearGradient>
</defs>
</svg>
